#!OML:ASF H:\charlestonDancing\Project 1\Capture day 1\Session 1\femaleDancer.ASF
:FULLY-SPECIFIED
:DEGREES
747
root -14.1957 16.4787 2.20408 59.4849 -101.43 -57.6153
lowerback 17.1608 -0.115923 6.16571
upperback 5.05095 0.513213 -1.63814
thorax -4.10197 0.129046 -5.34745
lowerneck 6.20288 -5.79211 -4.08426
upperneck 5.35899 -8.05456 -1.02785
head 0.752953 -4.15065 0.42746
rclavicle 1.23246e-014 -5.08889e-014
rhumerus -207.603 172.104 -251.592
rradius 39.7046
rwrist 31.1962
rhand -31.0989 -36.5321
rfingers 7.12502
rthumb 175.621 113.533
lclavicle 1.23246e-014 -5.08889e-014
lhumerus -54.3848 12.3476 62.2873
lradius 55.3379
lwrist -6.7789
lhand -26.8532 3.07636
lfingers 7.12502
lthumb -0.278308 33.0559
rfemur -30.8652 7.83221 -2.836
rtibia 60.0901
rfoot -25.3366 -15.5463
rtoes -20.3153
lfemur -25.8817 4.61544 -30.8311
ltibia 54.659
lfoot -15.6523 -21.2714
ltoes -3.54093
748
root -14.2598 16.4662 2.16358 59.9546 -101.471 -59.2375
lowerback 17.1251 -0.5257 5.41791
upperback 5.15988 -0.167293 -1.70636
thorax -4.06453 -0.205428 -4.85248
lowerneck 7.55441 -6.73479 -5.18542
upperneck 3.44691 -9.46887 -0.562844
head 0.0444289 -4.82654 0.855801
rclavicle 1.94809e-014 -2.8625e-014
rhumerus -208.573 171.849 -252.325
rradius 39.5007
rwrist 30.9902
rhand -30.9434 -36.9376
rfingers 7.12502
rthumb 175.771 113.125
lclavicle 1.94809e-014 -2.8625e-014
lhumerus -55.0118 13.1933 61.9581
lradius 53.9064
lwrist -6.61065
lhand -27.0187 3.23744
lfingers 7.12502
lthumb -0.438144 33.2167
rfemur -29.3866 8.00529 -2.68784
rtibia 60.2617
rfoot -25.6237 -15.7354
rtoes -21.2139
lfemur -24.2928 4.49987 -30.8238
ltibia 54.5607
lfoot -15.7918 -21.2834
ltoes -2.83824
749
root -14.3218 16.4534 2.11522 60.4368 -101.449 -60.9122
lowerback 16.8547 -0.879074 4.63086
upperback 5.543 -0.807031 -1.75992
thorax -3.588 -0.510008 -4.32822
lowerneck 8.89919 -7.75616 -6.1656
upperneck 1.19497 -11.0047 0.0217554
head -0.761953 -5.54503 1.35502
rclavicle 1.19271e-015 1.59028e-014
rhumerus -209.185 171.711 -252.975
rradius 39.2438
rwrist 30.7068
rhand -30.9757 -37.2143
rfingers 7.12502
rthumb 175.74 112.849
lclavicle 1.19271e-015 1.59028e-014
lhumerus -55.1798 14.1262 61.8266
lradius 52.3963
lwrist -6.36764
lhand -27.1106 3.47163
lfingers 7.12502
lthumb -0.526953 33.4507
rfemur -27.809 8.02389 -2.44259
rtibia 60.4216
rfoot -26.0306 -15.7406
rtoes -21.4224
lfemur -22.6827 4.28968 -30.7635
ltibia 54.4906
lfoot -16.3982 -20.9444
ltoes -4.06948
750
root -14.3779 16.4394 2.06355 61.138 -101.206 -62.7791
lowerback 16.4804 -1.29302 4.04593
upperback 6.04272 -1.49679 -1.78608
thorax -2.92423 -0.842201 -3.89228
lowerneck 9.78631 -8.82588 -7.00764
upperneck -0.811112 -12.5771 0.654837
head -1.41514 -6.28369 1.85045
rclavicle 2.22639e-014 1.90833e-014
rhumerus -209.572 171.439 -253.633
rradius 38.9758
rwrist 30.2124
rhand -31.0068 -37.1955
rfingers 7.12502
rthumb 175.71 112.868
lclavicle 2.22639e-014 1.90833e-014
lhumerus -55.2394 15.1865 61.7961
lradius 50.9822
lwrist -6.15554
lhand -26.8853 3.80298
lfingers 7.12502
lthumb -0.309315 33.7825
rfemur -26.1917 7.72722 -1.97866
rtibia 60.5681
rfoot -26.4225 -15.6754
rtoes -21.4252
lfemur -21.1386 3.84 -30.5428
ltibia 54.5002
lfoot -16.8801 -20.5509
ltoes -4.14045
751
root -14.4269 16.4234 2.00427 61.3664 -100.857 -64.1296
lowerback 16.3635 -1.69408 3.5177
upperback 6.34968 -2.13406 -1.79003
thorax -2.58457 -1.161 -3.48016
lowerneck 10.5156 -9.84103 -7.83121
upperneck -2.32328 -14.0694 1.34098
head -1.87115 -6.99657 2.34842
rclavicle 1.66979e-014 2.94201e-014
rhumerus -210.208 171.093 -254.39
rradius 38.6986
rwrist 29.7752
rhand -30.8836 -37.0952
rfingers 7.12502
rthumb 175.829 112.966
lclavicle 1.66979e-014 2.94201e-014
lhumerus -55.5002 15.9769 61.7887
lradius 49.4418
lwrist -6.11288
lhand -26.8742 3.92016
lfingers 7.12502
lthumb -0.298557 33.8997
rfemur -24.6921 7.2851 -1.33262
rtibia 60.7336
rfoot -26.671 -15.6094
rtoes -21.7091
lfemur -19.6914 3.43773 -30.1617
ltibia 54.5704
lfoot -17.3897 -20.0922
ltoes -4.17915
752
root -14.4677 16.415 1.93256 58.8684 -100.104 -62.6283
lowerback 16.3946 -2.00635 3.33473
upperback 6.54912 -2.58212 -1.60914
thorax -2.41379 -1.38867 -3.10331
lowerneck 11.2143 -10.7789 -8.47486
upperneck -3.58717 -15.4483 1.88519
head -2.25543 -7.65606 2.77026
rclavicle -1.03368e-014 7.95139e-016
rhumerus -210.893 170.803 -255.137
rradius 38.3689
rwrist 29.5636
rhand -30.7666 -36.8179
rfingers 7.12502
rthumb 175.942 113.241
lclavicle -1.03368e-014 7.95139e-016
lhumerus -55.7245 16.5443 61.9078
lradius 47.7148
lwrist -6.29678
lhand -26.8105 4.02543
lfingers 7.12502
lthumb -0.237105 34.005
rfemur -23.4823 6.99556 0.0559096
rtibia 60.9055
rfoot -26.849 -15.5179
rtoes -21.7482
lfemur -18.4432 3.24166 -29.0525
ltibia 54.7208
lfoot -18.1288 -19.52
ltoes -5.6601
753
root -14.5047 16.4071 1.86209 58.1332 -99.4766 -62.749
lowerback 16.2869 -2.37375 2.95717
upperback 6.79169 -3.14074 -1.50826
thorax -2.12181 -1.67283 -2.68846
lowerneck 11.4997 -11.6457 -9.01703
upperneck -4.54039 -16.6796 2.45888
head -2.46214 -8.25495 3.13653
rclavicle -3.97569e-016 -2.38542e-015
rhumerus -211.369 170.538 -255.835
rradius 38.0829
rwrist 29.5648
rhand -30.6897 -36.4968
rfingers 7.12502
rthumb 176.016 113.561
lclavicle -3.97569e-016 -2.38542e-015
lhumerus -55.7723 17.2011 62.1292
lradius 46.0317
lwrist -6.68757
lhand -26.1258 4.11116
lfingers 7.12502
lthumb 0.424215 34.0905
rfemur -22.4275 6.10166 1.04317
rtibia 61.1496
rfoot -26.9752 -15.0468
rtoes -21.7149
lfemur -17.3403 2.6673 -28.281
ltibia 54.8467
lfoot -18.6657 -19.066
ltoes -5.76486
754
root -14.5466 16.4007 1.78776 56.8511 -98.8621 -62.366
lowerback 16.2066 -2.72155 2.59317
upperback 7.07304 -3.67573 -1.45165
thorax -1.79518 -1.9481 -2.3375
lowerneck 11.6635 -12.336 -9.63105
upperneck -5.26153 -17.6489 3.29025
head -2.54225 -8.74142 3.56423
rclavicle -4.73108e-014 2.06736e-014
rhumerus -211.881 170.299 -256.608
rradius 37.9204
rwrist 29.6172
rhand -30.6294 -36.3691
rfingers 7.12502
rthumb 176.075 113.687
lclavicle -4.73108e-014 2.06736e-014
lhumerus -55.8077 17.7813 62.3329
lradius 44.4652
lwrist -7.3417
lhand -25.2997 3.96799
lfingers 7.12502
lthumb 1.22212 33.9442
rfemur -21.3517 4.98053 2.05027
rtibia 61.409
rfoot -26.8843 -14.5763
rtoes -22.226
lfemur -16.1423 2.1151 -27.4837
ltibia 54.9614
lfoot -19.149 -18.7009
ltoes -4.99947
755
root -14.5846 16.393 1.70914 55.611 -98.5906 -61.9928
lowerback 16.2611 -2.95026 1.94877
upperback 7.24103 -4.08977 -1.5262
thorax -1.63712 -2.16964 -1.9818
lowerneck 11.9755 -12.8816 -9.94109
upperneck -5.85781 -18.412 3.86846
head -2.66191 -9.12317 3.87044
rclavicle 2.64384e-014 7.95139e-015
rhumerus -212.618 170.251 -257.427
rradius 37.8028
rwrist 29.8676
rhand -30.5931 -36.2926
rfingers 7.12502
rthumb 176.11 113.763
lclavicle 2.64384e-014 7.95139e-015
lhumerus -55.8277 18.0328 62.5826
lradius 42.8558
lwrist -8.10482
lhand -24.6163 3.82917
lfingers 7.12502
lthumb 1.88211 33.8006
rfemur -20.4512 3.61655 2.69598
rtibia 61.7034
rfoot -26.6876 -14.1075
rtoes -23.0137
lfemur -14.9736 1.72625 -27.0213
ltibia 55.0307
lfoot -19.7211 -18.1935
ltoes -4.65755
756
root -14.6151 16.3955 1.62448 51.1788 -98.1525 -58.3019
lowerback 16.4086 -3.06069 1.64602
upperback 7.32037 -4.28798 -1.4984
thorax -1.61839 -2.2791 -1.74224
lowerneck 12.2799 -13.3652 -9.83703
upperneck -6.7177 -19.0275 4.38031
head -2.6157 -9.4528 3.6676
rclavicle 5.14852e-014 -2.06736e-014
rhumerus -213.434 170.393 -258.199
rradius 37.7124
rwrist 30.2515
rhand -30.4766 -36.3362
rfingers 7.12502
rthumb 176.222 113.718
lclavicle 5.14852e-014 -2.06736e-014
lhumerus -55.6962 18.1112 62.8895
lradius 41.0979
lwrist -9.05969
lhand -23.9875 3.60116
lfingers 7.12502
lthumb 2.48941 33.5664
rfemur -19.833 2.48974 3.85377
rtibia 62.0276
rfoot -26.5629 -13.6829
rtoes -22.0456
lfemur -13.9506 1.51547 -26.0687
ltibia 55.038
lfoot -20.2179 -17.6727
ltoes -4.42156
757
root -14.6408 16.411 1.52919 40.0915 -97.4347 -47.8972
lowerback 16.6318 -3.06774 1.98835
upperback 7.40614 -4.24787 -1.2339
thorax -1.64368 -2.26178 -1.65546
lowerneck 12.4335 -13.7554 -9.48753
upperneck -7.15156 -19.5097 4.40323
head -2.7673 -9.68796 3.67402
rclavicle 6.24184e-014 -2.70347e-014
rhumerus -214.182 170.458 -258.99
rradius 37.6183
rwrist 30.1818
rhand -30.1303 -36.6054
rfingers 7.12502
rthumb 176.557 113.443
lclavicle 6.24184e-014 -2.70347e-014
lhumerus -55.4385 18.1009 63.2881
lradius 39.4503
lwrist -10.0511
lhand -23.4211 3.28266
lfingers 7.12502
lthumb 3.03643 33.2408
rfemur -19.3693 1.95983 6.06249
rtibia 62.3563
rfoot -26.2697 -13.5835
rtoes -19.6712
lfemur -12.9454 1.48534 -24.1326
ltibia 55.0072
lfoot -20.7038 -17.1646
ltoes -5.02021
